<?xml version="1.0" standalone="no"?>
<svg version="1.0" xmlns="http://www.w3.org/2000/svg"
 width="484.000000pt" height="75.000000pt" viewBox="0 0 484.000000 75.000000"
 preserveAspectRatio="xMidYMid meet">

<g transform="translate(0.000000,75.000000) scale(0.100000,-0.100000)"
fill="#000000" stroke="none">
<path d="M0 375 l0 -375 2420 0 2420 0 0 375 0 375 -2420 0 -2420 0 0 -375z
m513 183 c-2 -5 2 -8 10 -8 8 0 22 -9 31 -19 17 -19 16 -19 -21 -10 -48 11
-63 11 -63 1 0 -4 17 -9 37 -10 34 -3 90 -28 81 -37 -2 -2 -25 1 -51 7 -33 7
-61 6 -95 -2 -26 -6 -51 -12 -57 -13 -5 -1 -12 2 -13 8 -2 5 18 18 45 28 40
15 42 17 14 12 -38 -6 -81 -30 -81 -44 0 -17 73 -34 140 -34 72 0 115 16 106
39 -3 8 -9 21 -12 29 -7 17 37 31 63 19 10 -4 21 -6 26 -6 4 1 2 -7 -5 -18
-14 -22 -38 -27 -38 -7 -1 6 -9 -4 -20 -23 -23 -42 -27 -132 -6 -149 8 -6 16
-23 19 -37 2 -13 2 -22 -1 -20 -2 3 -12 -4 -21 -15 -10 -12 -47 -28 -95 -40
-44 -11 -96 -29 -116 -39 -25 -13 -41 -15 -53 -9 -9 6 -22 7 -27 4 -21 -13
-10 64 12 85 20 19 21 21 6 37 -16 15 -19 15 -42 0 -31 -21 -35 -15 -42 65 -3
34 -10 76 -15 92 -6 20 -5 33 4 44 10 13 9 14 -10 4 -30 -16 -36 -15 -51 9 -8
12 -9 18 -3 14 6 -3 11 -2 11 4 0 16 46 24 68 12 12 -6 24 -20 27 -32 7 -21 7
-21 19 2 19 41 91 70 162 67 34 -2 60 -6 57 -10z m567 -83 c0 -48 2 -55 20
-55 13 0 20 -7 20 -20 0 -13 -7 -20 -20 -20 -18 0 -20 -7 -20 -75 0 -73 -1
-75 -25 -75 l-25 0 0 150 0 150 25 0 c24 0 25 -3 25 -55z m300 20 c0 -28 4
-35 20 -35 13 0 20 -7 20 -20 0 -13 -7 -20 -20 -20 -18 0 -20 -7 -20 -55 0
-52 -1 -55 -25 -55 l-25 0 0 110 0 110 25 0 c22 0 25 -4 25 -35z m310 -115 c0
-143 -1 -150 -20 -150 -19 0 -20 7 -20 150 0 143 1 150 20 150 19 0 20 -7 20
-150z m915 -1 c0 -121 -2 -144 -15 -144 -12 0 -16 16 -18 73 -2 55 -6 72 -17
72 -8 0 -15 9 -15 20 0 11 7 20 15 20 11 0 15 12 15 48 0 50 6 65 24 59 7 -2
11 -55 11 -148z m75 1 l0 -150 -25 0 -25 0 0 150 0 150 25 0 25 0 0 -150z
m500 130 c0 -15 7 -20 25 -20 18 0 25 -5 25 -20 0 -18 -7 -20 -70 -20 -63 0
-70 2 -70 20 0 15 7 20 25 20 18 0 25 5 25 20 0 13 7 20 20 20 13 0 20 -7 20
-20z m108 -38 c4 -69 22 -67 22 3 0 52 1 55 25 55 l25 0 0 -150 0 -150 -25 0
c-24 0 -25 2 -25 75 0 96 -18 98 -22 3 -2 -60 -6 -73 -20 -76 -17 -3 -18 9
-18 148 0 139 1 151 18 148 13 -2 18 -15 20 -56z m732 38 c0 -13 -7 -20 -20
-20 -11 0 -20 -7 -20 -15 0 -8 9 -15 20 -15 13 0 20 -7 20 -20 0 -19 -7 -20
-110 -20 -94 0 -110 2 -110 16 0 9 9 18 20 21 11 3 20 12 20 19 0 8 -9 14 -20
14 -19 0 -27 20 -13 33 3 4 53 7 110 7 96 0 103 -1 103 -20z m250 -15 c0 -24
5 -35 15 -35 10 0 15 11 15 35 0 28 4 35 20 35 19 0 20 -7 20 -100 0 -93 -1
-100 -20 -100 -17 0 -20 7 -20 45 0 33 -4 45 -15 45 -10 0 -15 -10 -15 -30 0
-23 -4 -30 -20 -30 -18 0 -20 7 -20 85 0 78 2 85 20 85 16 0 20 -7 20 -35z
m-2982 -57 l3 -78 -81 0 -80 0 0 73 c0 41 3 77 7 81 4 4 39 5 78 4 l70 -3 3
-77z m304 55 c12 -11 18 -30 18 -60 0 -57 -25 -83 -80 -83 -55 0 -80 26 -80
83 0 43 14 66 50 80 23 9 72 -1 92 -20z m381 -11 c-1 -29 5 -37 53 -69 57 -38
60 -43 43 -60 -9 -9 -26 -3 -67 23 -54 35 -54 35 -76 16 -11 -11 -35 -27 -53
-36 -30 -15 -33 -15 -41 1 -8 13 0 22 37 47 42 28 50 41 67 104 2 8 12 12 21
10 13 -3 18 -13 16 -36z m900 0 c-1 -29 5 -37 53 -69 57 -38 60 -43 43 -60 -9
-9 -26 -3 -67 23 -54 35 -54 35 -76 16 -11 -11 -35 -27 -53 -36 -30 -15 -33
-15 -41 1 -8 13 0 22 37 47 42 28 50 41 67 104 2 8 12 12 21 10 13 -3 18 -13
16 -36z m680 0 c-3 -28 3 -35 52 -66 38 -25 53 -40 49 -51 -9 -21 -21 -19 -74
15 l-47 30 -54 -36 c-50 -34 -54 -34 -67 -17 -11 15 -11 19 4 28 76 45 81 52
100 123 2 8 12 12 21 10 13 -3 17 -12 16 -36z m647 -12 l0 -50 -40 0 c-22 0
-40 -4 -40 -10 0 -5 20 -10 45 -10 32 0 45 -4 45 -14 0 -19 -22 -26 -81 -26
l-49 0 0 50 0 50 40 0 c22 0 40 5 40 10 0 6 -18 10 -40 10 -33 0 -40 3 -40 20
0 18 7 20 60 20 l60 0 0 -50z m420 35 c0 -8 -9 -15 -20 -15 -15 0 -20 -7 -20
-25 0 -18 5 -25 20 -25 11 0 20 -7 20 -15 0 -11 -11 -15 -39 -15 -67 0 -57
-19 11 -22 50 -2 63 -6 66 -20 3 -17 -9 -18 -142 -18 -139 0 -146 1 -146 20 0
18 7 20 60 20 33 0 60 4 60 10 0 6 -20 10 -45 10 -33 0 -45 4 -45 15 0 8 9 15
20 15 15 0 20 7 20 25 0 18 -5 25 -20 25 -11 0 -20 7 -20 15 0 12 19 15 110
15 91 0 110 -3 110 -15z m-3740 -90 l0 -95 65 0 c52 0 65 -3 65 -15 0 -20 -8
-22 -97 -30 l-73 -6 0 120 c0 114 1 121 20 121 19 0 20 -7 20 -95z m1480 75
c0 -18 -7 -20 -85 -20 -69 0 -85 -3 -85 -15 0 -12 16 -15 85 -15 78 0 85 -2
85 -20 0 -18 -7 -20 -85 -20 -69 0 -85 -3 -85 -15 0 -12 17 -15 90 -15 83 0
90 -1 90 -20 0 -19 -7 -20 -115 -20 l-115 0 0 90 0 90 110 0 c103 0 110 -1
110 -20z m170 -50 l0 -70 -35 0 c-32 0 -35 -2 -35 -30 0 -29 2 -30 46 -30 38
0 45 -3 42 -17 -3 -15 -16 -19 -66 -21 l-62 -3 0 71 0 70 35 0 c32 0 35 2 35
30 0 28 -3 30 -35 30 -28 0 -35 4 -35 20 0 18 7 20 55 20 l55 0 0 -70z m-1997
34 c66 -11 40 -24 -50 -24 -88 0 -100 6 -41 20 44 11 47 11 91 4z m2665 -60
c17 -12 22 -25 22 -61 0 -55 -21 -83 -61 -83 -36 0 -59 33 -59 82 0 65 49 96
98 62z m860 -26 c3 -17 -9 -18 -142 -18 -115 0 -146 3 -146 13 0 8 3 17 7 21
4 3 68 5 142 4 120 -3 136 -5 139 -20z m-508 -63 l0 -35 65 0 c58 0 65 -2 65
-20 0 -19 -7 -20 -145 -20 -138 0 -145 1 -145 20 0 18 7 20 60 20 59 0 60 0
60 28 0 32 7 42 27 42 8 0 13 -12 13 -35z m470 -5 l0 -40 -85 0 c-50 0 -85 -4
-85 -10 0 -6 37 -10 90 -10 73 0 90 -3 90 -15 0 -12 -19 -15 -115 -15 l-115 0
0 40 0 40 93 2 92 2 -92 3 c-85 3 -93 6 -93 23 0 19 7 20 110 20 l110 0 0 -40z
m230 6 c0 -20 8 -27 50 -41 46 -15 63 -36 41 -50 -6 -3 -33 4 -63 15 l-52 20
-43 -21 c-44 -21 -73 -20 -73 3 1 7 20 22 43 33 23 11 46 30 52 43 13 30 45
29 45 -2z m-4012 -20 c-6 -32 26 -53 49 -31 17 17 34 16 41 -3 2 -7 -3 -12
-11 -12 -25 0 -38 -92 -18 -128 6 -12 4 -24 -5 -37 -13 -17 -25 -20 -84 -17
-45 1 -70 -2 -70 -8 0 -6 -4 -9 -9 -5 -6 3 -14 -2 -19 -11 -11 -20 -21 35 -23
138 -2 48 -5 65 -15 61 -6 -2 -15 0 -19 6 -10 17 25 26 48 12 15 -10 22 -10
31 0 8 9 8 10 -3 4 -9 -5 -12 -4 -7 3 4 6 14 8 23 5 13 -5 15 -2 9 13 -6 15
-5 17 5 7 20 -20 60 -16 66 7 7 28 16 25 11 -4z m982 -6 l0 -30 85 0 c78 0 85
-2 85 -20 0 -19 -7 -20 -105 -20 l-105 0 0 50 c0 43 3 50 20 50 16 0 20 -7 20
-30z m3400 -20 l0 -50 -110 0 -110 0 0 50 0 50 110 0 110 0 0 -50z m-2990 21
c0 -16 -10 -20 -62 -26 -88 -9 -132 -4 -136 17 -3 14 7 18 65 21 37 2 83 4
101 5 26 2 32 -2 32 -17z m470 -31 c0 -19 -7 -20 -145 -20 -138 0 -145 1 -145
20 0 19 7 20 145 20 138 0 145 -1 145 -20z m300 0 c0 -19 -7 -20 -145 -20
-138 0 -145 1 -145 20 0 19 7 20 145 20 138 0 145 -1 145 -20z m600 0 c0 -19
-7 -20 -145 -20 -138 0 -145 1 -145 20 0 19 7 20 145 20 138 0 145 -1 145 -20z
m-2415 -60 c-3 -5 -11 -10 -16 -10 -6 0 -7 5 -4 10 3 6 11 10 16 10 6 0 7 -4
4 -10z m-507 -58 c4 -37 -7 -41 -33 -12 -15 16 -16 22 -5 35 19 23 35 13 38
-23z m257 -2 c11 -17 -5 -32 -21 -19 -7 6 -11 15 -8 20 7 12 21 11 29 -1z"/>
<path d="M3890 475 c0 -9 9 -15 25 -15 16 0 25 6 25 15 0 9 -9 15 -25 15 -16
0 -25 -6 -25 -15z"/>
<path d="M1180 440 c0 -38 2 -40 30 -40 28 0 30 2 30 40 0 38 -2 40 -30 40
-28 0 -30 -2 -30 -40z"/>
<path d="M1502 468 c-28 -28 -10 -78 29 -78 23 0 30 6 35 27 12 46 -33 82 -64
51z"/>
<path d="M4490 465 c0 -20 5 -25 25 -25 20 0 25 5 25 25 0 20 -5 25 -25 25
-20 0 -25 -5 -25 -25z"/>
<path d="M3144 377 c-10 -27 0 -62 19 -65 16 -3 18 2 15 34 -3 39 -24 57 -34
31z"/>
<path d="M190 245 c0 -12 7 -15 25 -13 33 4 33 22 0 26 -18 2 -25 -1 -25 -13z"/>
<path d="M4450 275 c0 -12 14 -15 65 -15 51 0 65 3 65 15 0 12 -14 15 -65 15
-51 0 -65 -3 -65 -15z"/>
</g>
</svg>
