<svg version="1.1" id="Layer_1" xmlns="http://www.w3.org/2000/svg" xmlns:xlink="http://www.w3.org/1999/xlink" x="0px" y="0px"
	 width="100%" viewBox="0 0 134 134" enable-background="new 0 0 134 134" xml:space="preserve">
<path fill="#FFFFFF" opacity="1.000000" stroke="none" 
	d="
M135.000000,56.000000 
	C135.000000,82.642235 135.000000,108.784477 135.000000,134.963348 
	C90.399490,134.963348 45.798939,134.963348 1.099194,134.963348 
	C1.099194,90.441360 1.099194,45.882423 1.099194,1.161744 
	C45.666195,1.161744 90.333046,1.161744 135.000000,1.161744 
	C135.000000,19.200630 135.000000,37.350315 135.000000,56.000000 
M94.978653,6.893825 
	C93.474571,6.595883 91.971840,6.047438 90.466202,6.039364 
	C77.641647,5.970591 64.791969,6.478003 52.000893,5.820014 
	C44.376297,5.427795 38.784286,7.383138 33.930687,13.326996 
	C31.338285,16.501730 30.355543,18.912149 31.420918,23.078287 
	C34.398190,34.720890 35.345882,46.545784 32.254009,58.428738 
	C30.078789,66.788727 28.134798,75.208870 25.845547,84.594360 
	C40.202961,70.721741 53.912083,57.475525 67.682602,44.169979 
	C81.426674,57.455311 95.310730,70.875954 110.031715,85.105598 
	C109.529106,82.089554 109.369690,80.358803 108.925217,78.704651 
	C108.553139,77.319901 107.789116,76.045868 107.299294,74.686539 
	C101.830742,59.510685 99.453789,43.862885 103.220177,28.089306 
	C105.237114,19.642441 103.576027,13.762319 96.590965,9.069261 
	C96.050369,8.706053 95.639366,8.149971 94.978653,6.893825 
M87.350945,120.969238 
	C94.112228,116.008560 101.240303,111.560577 105.742714,103.995285 
	C107.237846,101.483047 106.997765,100.361862 105.159752,98.641396 
	C98.527092,92.432861 92.005936,86.105194 85.371834,79.898232 
	C79.621086,74.517754 73.774269,69.239952 67.621552,63.597275 
	C54.514721,76.011368 41.496918,88.341141 28.060757,101.067162 
	C29.943302,103.716652 31.761988,106.962822 34.221687,109.614342 
	C42.972469,119.047630 54.160919,124.883606 65.660988,130.170013 
	C66.586250,130.595337 67.989166,130.974838 68.762749,130.579163 
	C74.766418,127.508430 80.669945,124.241898 87.350945,120.969238 
z"/>
<path fill="#000000" opacity="1.000000" stroke="none" 
	d="
M95.073395,7.288680 
	C95.639366,8.149971 96.050369,8.706053 96.590965,9.069261 
	C103.576027,13.762319 105.237114,19.642441 103.220177,28.089306 
	C99.453789,43.862885 101.830742,59.510685 107.299294,74.686539 
	C107.789116,76.045868 108.553139,77.319901 108.925217,78.704651 
	C109.369690,80.358803 109.529106,82.089554 110.031715,85.105598 
	C95.310730,70.875954 81.426674,57.455311 67.682602,44.169979 
	C53.912083,57.475525 40.202961,70.721741 25.845547,84.594360 
	C28.134798,75.208870 30.078789,66.788727 32.254009,58.428738 
	C35.345882,46.545784 34.398190,34.720890 31.420918,23.078287 
	C30.355543,18.912149 31.338285,16.501730 33.930687,13.326996 
	C38.784286,7.383138 44.376297,5.427795 52.000893,5.820014 
	C64.791969,6.478003 77.641647,5.970591 90.466202,6.039364 
	C91.971840,6.047438 93.474571,6.595883 95.073395,7.288680 
M60.000000,23.718582 
	C60.089119,21.848379 60.178238,19.978174 60.267357,18.107971 
	C59.953236,18.084122 59.639114,18.060270 59.324989,18.036421 
	C59.125675,20.308311 58.926361,22.580200 58.738525,24.721226 
	C56.330078,24.721226 54.257526,24.721226 52.279045,24.721226 
	C51.991905,22.250853 51.741158,20.093552 51.490410,17.936251 
	C51.208714,17.998751 50.927013,18.061249 50.645317,18.123747 
	C50.645317,23.405182 50.645317,28.686617 50.645317,33.968052 
	C51.040440,33.959019 51.435562,33.949986 51.830685,33.940952 
	C51.830685,31.420019 51.830685,28.899084 51.830685,26.339218 
	C54.572651,26.339218 56.759197,26.339218 59.370804,26.339218 
	C59.370804,29.163326 59.370804,31.612280 59.370804,34.061234 
	C59.580536,33.966793 59.790268,33.872349 60.000000,33.777908 
	C60.000000,30.730314 60.000000,27.682718 60.000000,23.718582 
M42.038834,33.114445 
	C42.530495,33.355640 43.022156,33.596836 43.513817,33.838032 
	C43.513817,28.567022 43.513817,23.296013 43.513817,18.025003 
	C43.010067,18.039640 42.506317,18.054277 42.002567,18.068916 
	C42.002567,22.768669 42.002567,27.468422 42.038834,33.114445 
M71.433495,31.043894 
	C71.311806,31.501503 71.190117,31.959112 71.068428,32.416721 
	C71.450485,32.349129 72.054123,32.411407 72.181313,32.194420 
	C74.037476,29.027729 73.036552,26.847153 70.025352,24.929567 
	C68.071243,23.685156 66.549042,21.762520 64.852005,20.161390 
	C63.555763,21.848581 63.826614,23.531702 66.467911,25.252508 
	C68.534172,26.598679 70.107422,28.701574 71.433495,31.043894 
z"/>
<path fill="#000000" opacity="1.000000" stroke="none" 
	d="
M86.977692,121.002594 
	C80.669945,124.241898 74.766418,127.508430 68.762749,130.579163 
	C67.989166,130.974838 66.586250,130.595337 65.660988,130.170013 
	C54.160919,124.883606 42.972469,119.047630 34.221687,109.614342 
	C31.761988,106.962822 29.943302,103.716652 28.060757,101.067162 
	C41.496918,88.341141 54.514721,76.011368 67.621552,63.597275 
	C73.774269,69.239952 79.621086,74.517754 85.371834,79.898232 
	C92.005936,86.105194 98.527092,92.432861 105.159752,98.641396 
	C106.997765,100.361862 107.237846,101.483047 105.742714,103.995285 
	C101.240303,111.560577 94.112228,116.008560 86.977692,121.002594 
M52.983509,111.801582 
	C53.673214,112.016869 54.362038,112.416237 55.052753,112.419548 
	C63.890591,112.461845 72.728699,112.447456 82.192902,112.447456 
	C85.064835,107.559250 88.245773,102.145111 91.488800,96.625290 
	C88.085564,95.733559 85.473839,94.756050 82.792236,94.494156 
	C81.752670,94.392639 79.690369,95.827522 79.606735,96.706421 
	C79.424370,98.623131 80.212326,100.632172 80.817184,103.678078 
	C76.786308,102.892967 72.641701,103.178886 71.812477,101.657623 
	C70.682686,99.584961 72.082115,96.133644 72.427116,93.000633 
	C69.770210,93.000633 66.955536,92.914192 64.152855,93.059433 
	C63.422543,93.097275 62.729652,93.857315 62.019573,94.285660 
	C62.588970,94.605576 63.267620,94.820793 63.700005,95.272003 
	C64.236290,95.831642 64.971786,96.626366 64.910454,97.249603 
	C64.751915,98.860390 64.628822,101.435066 63.724274,101.819519 
	C61.598095,102.723198 58.851501,103.195328 56.700706,102.598915 
	C55.546600,102.278877 54.800106,99.443245 54.479542,97.634666 
	C54.334347,96.815498 55.673279,95.733269 56.338932,94.770370 
	C56.086906,94.409477 55.834877,94.048584 55.582848,93.687691 
	C51.804054,94.653557 48.025261,95.619423 44.050800,96.635300 
	C47.109982,101.800720 49.860744,106.445381 52.983509,111.801582 
z"/>
<path fill="#FFFFFF" opacity="1.000000" stroke="none" 
	d="
M60.000000,24.176853 
	C60.000000,27.682718 60.000000,30.730314 60.000000,33.777908 
	C59.790268,33.872349 59.580536,33.966793 59.370804,34.061234 
	C59.370804,31.612280 59.370804,29.163326 59.370804,26.339218 
	C56.759197,26.339218 54.572651,26.339218 51.830685,26.339218 
	C51.830685,28.899084 51.830685,31.420019 51.830685,33.940952 
	C51.435562,33.949986 51.040440,33.959019 50.645317,33.968052 
	C50.645317,28.686617 50.645317,23.405182 50.645317,18.123747 
	C50.927013,18.061249 51.208714,17.998751 51.490410,17.936251 
	C51.741158,20.093552 51.991905,22.250853 52.279045,24.721226 
	C54.257526,24.721226 56.330078,24.721226 58.738525,24.721226 
	C58.926361,22.580200 59.125675,20.308311 59.324989,18.036421 
	C59.639114,18.060270 59.953236,18.084122 60.267357,18.107971 
	C60.178238,19.978174 60.089119,21.848379 60.000000,24.176853 
z"/>
<path fill="#FFFFFF" opacity="1.000000" stroke="none" 
	d="
M42.020699,32.641312 
	C42.002567,27.468422 42.002567,22.768669 42.002567,18.068916 
	C42.506317,18.054277 43.010067,18.039640 43.513817,18.025003 
	C43.513817,23.296013 43.513817,28.567022 43.513817,33.838032 
	C43.022156,33.596836 42.530495,33.355640 42.020699,32.641312 
z"/>
<path fill="#FFFFFF" opacity="1.000000" stroke="none" 
	d="
M71.666611,30.756067 
	C70.107422,28.701574 68.534172,26.598679 66.467911,25.252508 
	C63.826614,23.531702 63.555763,21.848581 64.852005,20.161390 
	C66.549042,21.762520 68.071243,23.685156 70.025352,24.929567 
	C73.036552,26.847153 74.037476,29.027729 72.181313,32.194420 
	C72.054123,32.411407 71.450485,32.349129 71.068436,32.416721 
	C71.190117,31.959112 71.311806,31.501503 71.666611,30.756067 
z"/>
<path fill="#FFFFFF" opacity="1.000000" stroke="none" 
	d="
M52.797508,111.445808 
	C49.860744,106.445381 47.109982,101.800720 44.050800,96.635300 
	C48.025261,95.619423 51.804054,94.653557 55.582848,93.687691 
	C55.834877,94.048584 56.086906,94.409477 56.338932,94.770370 
	C55.673279,95.733269 54.334347,96.815498 54.479542,97.634666 
	C54.800106,99.443245 55.546600,102.278877 56.700706,102.598915 
	C58.851501,103.195328 61.598095,102.723198 63.724274,101.819519 
	C64.628822,101.435066 64.751915,98.860390 64.910454,97.249603 
	C64.971786,96.626366 64.236290,95.831642 63.700005,95.272003 
	C63.267620,94.820793 62.588970,94.605576 62.019573,94.285660 
	C62.729652,93.857315 63.422543,93.097275 64.152855,93.059433 
	C66.955536,92.914192 69.770210,93.000633 72.427116,93.000633 
	C72.082115,96.133644 70.682686,99.584961 71.812477,101.657623 
	C72.641701,103.178886 76.786308,102.892967 80.817184,103.678078 
	C80.212326,100.632172 79.424370,98.623131 79.606735,96.706421 
	C79.690369,95.827522 81.752670,94.392639 82.792236,94.494156 
	C85.473839,94.756050 88.085564,95.733559 91.488800,96.625290 
	C88.245773,102.145111 85.064835,107.559250 82.192902,112.447456 
	C72.728699,112.447456 63.890591,112.461845 55.052753,112.419548 
	C54.362038,112.416237 53.673214,112.016869 52.797508,111.445808 
z"/>
</svg>